<svg width="1073" height="291" viewBox="0 0 1073 291" fill="none" xmlns="http://www.w3.org/2000/svg">
<path d="M0.217294 0.45746C38.9299 0.663317 77.6424 0.49177 116.355 0.548952C125.07 0.640444 133.83 0.205857 142.487 1.52105C169.912 4.323 197.611 14.4214 217.294 34.3095C233.408 50.0461 242.923 71.8327 245.233 94.0995C246.365 102.711 246.697 111.449 245.542 120.072C252.609 100.035 268.083 82.9146 287.731 74.6003C300.94 68.7448 315.75 67.8985 329.932 69.6254C341.482 71.318 352.873 75.4923 361.92 83.0404C370.588 89.9367 376.764 99.3375 381.933 109.013C381.945 91.8465 381.933 74.6918 381.933 57.537C381.911 50.6637 382.311 43.7103 380.79 36.9628C377.919 21.3062 367.066 7.99411 353.571 0C413.361 0.251603 473.151 0.0114365 532.941 0.125802C532.987 19.3734 532.907 38.6325 532.987 57.8801C525.507 38.2322 512.092 19.4764 492.341 10.8304C478.263 4.5746 462.549 6.40444 447.602 6.15284C447.568 39.0099 447.613 71.867 447.579 104.724C456.465 104.621 465.351 104.827 474.237 104.644C490.809 103.512 505.116 91.755 511.955 77.002C511.772 97.5877 511.783 118.185 511.955 138.771C506.557 127.586 497.202 118.048 485.354 113.873C473.242 109.505 460.171 111.677 447.602 111.128C447.59 131.371 447.556 151.625 447.613 171.879C448.014 184.311 450.564 197.291 458.135 207.458C461.943 212.707 467.49 216.482 473.563 218.677C433.626 218.654 393.69 218.586 353.754 218.7C365.465 211.735 375.678 201.191 379.806 187.959C377.279 190.681 375.117 193.7 372.784 196.593C358.283 213.165 336.336 223.366 314.206 222.566C280.583 221.456 249.121 195.953 242.431 162.741C240.544 156.108 241.356 149.178 240.418 142.453C231.726 172.92 207.481 198.092 178.215 209.757C163.325 215.841 147.119 217.66 131.165 218.38C87.4435 218.975 43.7217 218.334 0 218.574C15.2334 209.94 27.7221 194.501 28.4311 176.442C28.5569 133.761 28.4197 91.0803 28.4998 48.3878C28.7971 28.7285 17.0861 10.1327 0.217294 0.45746ZM107.663 12.4658C101.385 13.2092 93.928 17.1319 94.1567 24.3941C94.0424 80.0326 94.1682 135.683 94.0881 191.321C94.0538 194.992 94.3854 198.812 96.3068 202.026C98.7656 206.772 103.969 209.151 108.864 210.569C122.462 213.863 137.615 210.878 148.549 202.003C159.471 193.277 166.081 180.457 170.553 167.465C176.9 148.675 178.798 128.752 179.382 109.036C179.027 91.7436 176.866 74.2915 170.77 58.0174C164.697 41.8004 154.45 26.1324 138.713 17.9553C129.221 13.2663 118.208 10.7846 107.663 12.4658ZM284.689 88.793C281.67 96.3411 283.579 104.575 285.055 112.249C287.571 122.794 290.807 133.178 294.627 143.322C307.916 137.936 321.297 132.755 334.552 127.265C333.443 113.782 328.902 100.138 319.467 90.1425C314.012 84.3099 306.487 79.335 298.172 79.9411C292.5 79.9068 286.599 83.292 284.689 88.793ZM297.052 148.583C302.667 166.012 312.457 183.087 327.999 193.414C338.44 200.39 352.656 202.54 364.07 196.674C371.446 192.614 374.957 184.608 379.6 178.032C380.172 177.998 381.327 177.941 381.911 177.906C381.968 156.669 381.922 135.42 381.945 114.171C353.685 125.767 325.38 137.204 297.052 148.583Z" fill="white"/>
<path d="M878.209 72.5874C893.282 55.6385 908.218 38.5753 923.303 21.6378C923.269 39.25 923.109 56.8737 923.383 74.4973C912.827 63.747 895.089 65.4282 883.39 73.3194C897.354 76.716 911.775 83.3835 919.037 96.4897C928.907 115.12 926.402 141.286 909.499 155.079C893.957 167.407 873.177 169.969 853.952 169.889C836.992 169.924 819.562 167.133 804.684 158.613C803.609 165.612 803.197 173.389 807.337 179.542C813.33 188.794 825.144 192.202 835.665 191.653C845.249 192.099 854.524 189.24 863.582 186.426C884.179 180.422 907.589 183.716 925.03 196.479C938.125 187.044 950.728 176.82 961.993 165.235C964.772 179.519 968.843 194.706 979.765 205.034C987.05 212.136 997.286 215.212 1007.27 215.498C1015.89 214.823 1023.91 209.196 1027.76 201.488C1031.13 194.798 1028.67 186.781 1024.71 180.914C1018.51 172.291 1009.09 166.824 999.939 161.838C987.405 154.919 973.978 149.875 961.044 143.825C952.935 139.983 944.518 134.733 941.213 125.939C936.97 114.456 937.53 100.447 945.135 90.4512C951.757 81.5536 962.027 76.1556 972.411 72.8848C990.355 67.1322 1009.56 67.441 1028.06 69.7969C1042.15 71.7869 1056.69 76.716 1066.33 87.7179C1056.34 97.0844 1045.9 106.154 1037.45 116.984C1037.29 106.245 1036.03 94.5798 1028.9 86.0024C1021.49 77.0362 1009.17 74.0742 997.983 74.3143C991.43 74.0056 984.26 75.2979 979.399 80.0212C975.385 83.9439 975.179 90.3483 977.409 95.2317C980.726 102.334 987.05 107.697 994.255 110.637C1014.47 119.591 1035.76 127.311 1053.1 141.458C1062.74 149.384 1070.9 160.283 1072.38 173C1074.21 184.173 1070.42 196.193 1061.99 203.856C1049.09 215.944 1031.05 220.21 1013.98 222.2C986.147 225.185 955.954 221.456 933.047 204.199C939.646 212.101 942.985 222.794 941.167 233.007C939.646 249.384 929.685 264.172 916.178 273.229C901.345 283.705 883.058 287.251 865.389 289.481C844.757 292.18 823.131 291.551 803.529 283.991C794.597 280.194 785.264 274.956 780.827 265.899C778.197 260.489 780.633 254.142 784.635 250.139C789.896 245.038 797.124 242.82 804.089 241.207C803.014 244.124 801.722 247.349 802.968 250.425C805.198 256.132 810.265 260.066 815.251 263.303C834.613 274.956 857.966 279.291 880.313 276.683C887.999 275.379 896.016 273.309 901.974 268.003C906.514 264.057 909.659 257.996 909.065 251.9C907.646 243.369 899.79 237.673 891.956 235.409C879.49 231.829 866.235 233.613 853.838 236.598C840.834 239.629 826.882 240.475 814.13 235.866C803.643 232.161 794.711 224.155 790.251 213.931C783.904 199.59 785.059 182.629 791.6 168.563C793.785 163.656 797.444 159.665 800.612 155.376C795.34 151.065 791.326 145.472 788.501 139.308C789.645 155.239 786.408 171.616 778.22 185.42C768.727 202.072 752.773 214.892 734.464 220.564C722.855 224.052 710.413 225.025 698.473 222.726C674.868 218.746 654.042 202.426 643.692 180.96C632.484 158.578 633.148 130.879 645.087 108.91C642.102 101.579 635.858 94.7171 627.567 94.008C618.177 92.7614 608.994 98.88 605.197 107.286C602.418 112.752 602.578 119.065 602.566 125.035C602.704 141.435 602.361 157.847 602.738 174.235C603.092 190.864 610.069 207.378 622.214 218.815C592.136 218.529 562.047 218.563 531.98 218.792C543.119 208.053 549.684 193.002 550.999 177.677C551.022 155.525 551.091 133.372 550.965 111.22C549.364 96.0666 542.879 81.0733 531.626 70.5975C555.265 70.8491 578.916 70.6204 602.566 70.7118C602.658 80.9818 602.441 91.2632 602.681 101.533C606.638 97.8049 609.703 93.2646 613.705 89.5935C623.461 80.2156 635.538 72.6446 649.067 70.4946C656.398 70.0485 663.98 69.6711 671.06 71.9927C666.805 78.2485 662.802 84.6872 658.422 90.863C672.661 77.0705 692.16 68.2759 712.162 68.9277C745.031 68.1501 776.321 91.9952 785.139 123.503C785.39 115.897 785.47 108.018 788.89 101.019C794.494 87.6264 807.611 79.0605 821.152 75.1378C839.645 69.9227 859.304 69.3509 878.209 72.5874ZM842.973 77.7339C838.662 78.706 834.556 81.668 833.355 86.0825C831.296 93.0588 832.863 100.435 834.087 107.412C837.198 121.559 841.601 135.431 847.25 148.755C850.029 154.976 853.803 161.918 860.825 163.965C868.168 165.6 878.186 162.901 880.29 154.759C882.235 147.142 879.936 139.308 878.312 131.851C875.098 118.837 871.301 105.959 866.395 93.4819C864.085 87.9009 861.02 82.0111 855.507 79.0147C851.733 76.8304 847.125 76.7389 842.973 77.7339ZM685.092 79.6552C678.813 81.5308 675.668 88.0725 674.799 94.1109C672.844 106.988 676.755 119.774 681.112 131.76C689.118 153.798 699.09 175.207 711.785 194.958C717.778 203.856 727.076 212.639 738.546 212.136C746.22 212.044 751.916 205.114 753.139 197.989C754.089 190.372 753.517 182.538 750.978 175.276C743.052 151.648 732.908 128.786 721.106 106.851C716.211 97.7706 710.515 88.5871 701.686 82.8574C696.849 79.8039 690.73 77.5966 685.092 79.6552Z" fill="white"/>
</svg>
