<svg width="32" height="32" viewBox="0 0 32 32" fill="none" xmlns="http://www.w3.org/2000/svg">
<path fill-rule="evenodd" clip-rule="evenodd" d="M0 12.8829H2.06543V10.8194H4.12897V8.75397H6.1944V6.69043H8.25794V4.625H17.5495V6.69043H19.6131V4.625H27.871V6.69043H29.9365V8.75397H32V10.8194H29.9365V12.8829H32V17.0119H7.22617V21.1409H9.28971V19.0773H32V21.1409H9.28971V23.2063H29.9365V25.2699H27.871V27.3353H4.12897V25.2699H2.06543V23.2063H0L0 12.8829ZM21.6785 12.8829H23.7421V14.9484H27.871V10.8194H21.6785V12.8829ZM9.28971 12.8829H11.3551V14.9484H15.4841V10.8194H9.28971V12.8829ZM17.5495 10.8194V12.8829H19.6131V10.8194H17.5495Z" fill="white"/>
</svg>
