<svg width="28" height="28" viewBox="0 0 28 28" fill="none" xmlns="http://www.w3.org/2000/svg">
<path d="M15.5556 3C17.6291 3 19.7027 3 21.7778 3C21.7778 3.51534 21.7778 4.03222 21.7778 4.54756C22.2958 4.54756 22.8138 4.54756 23.3333 4.54756C23.3333 5.06289 23.3333 5.57978 23.3333 6.09511C23.8513 6.09511 24.3693 6.09511 24.8889 6.09511C24.8889 6.61045 24.8889 7.12733 24.8889 7.64267C25.4069 7.64267 25.9264 7.64267 26.4444 7.64267C26.4444 8.158 26.4444 8.67489 26.4444 9.19022C25.9264 9.19022 25.4069 9.19022 24.8889 9.19022C24.8873 11.77 24.8904 14.3482 24.8889 16.928C24.3693 16.928 23.8513 16.928 23.3333 16.928C23.3318 17.9602 23.3349 18.9909 23.3333 20.0231C22.2958 20.0247 21.2598 20.0216 20.2222 20.0231C20.2222 20.5385 20.2222 21.0538 20.2222 21.5707C19.1847 21.5722 18.1487 21.5691 17.1111 21.5707C17.1111 22.086 17.1111 22.6013 17.1111 23.1182C16.5916 23.1182 16.0736 23.1182 15.5556 23.1182C15.5556 23.6336 15.5556 24.1489 15.5556 24.6658C10.8889 24.6658 6.22222 24.6658 1.55556 24.6658C1.55556 24.1489 1.55556 23.6336 1.55556 23.1182C1.03756 23.1182 0.518 23.1182 0 23.1182C0 21.5707 0 20.0231 0 18.4756C0.518 18.474 1.03756 18.474 1.55556 18.4756C1.55556 18.9909 1.55556 19.5062 1.55556 20.0231C2.07356 20.0231 2.59311 20.0231 3.11111 20.0231C3.11111 20.5385 3.11111 21.0538 3.11111 21.5707C3.62911 21.5707 4.14867 21.5707 4.66667 21.5691C4.66667 21.0538 4.66667 20.5385 4.66667 20.0231C5.18467 20.0231 5.70422 20.0231 6.22222 20.0231C6.22222 19.5062 6.22222 18.9909 6.22222 18.4756C6.74022 18.4756 7.25822 18.4756 7.77778 18.4756C7.77778 17.9587 7.77778 17.4433 7.77778 16.928C7.25822 16.928 6.74022 16.928 6.22222 16.928C6.22222 16.4111 6.22222 15.8958 6.22222 15.3804C5.70267 15.3804 5.18467 15.3804 4.66667 15.3804C4.66667 14.8636 4.66667 14.3482 4.66667 13.8329C4.14867 13.8329 3.62911 13.8329 3.11111 13.8329C3.11111 13.3176 3.11111 12.8007 3.11111 12.2853C2.59311 12.2853 2.07356 12.2853 1.55556 12.2853C1.554 11.2531 1.55711 10.2224 1.55556 9.19022C1.036 9.19022 0.518 9.19022 0 9.19022C0 8.67334 0 8.158 0 7.64267C2.07511 7.64267 4.14867 7.64267 6.22222 7.64267C6.22222 8.158 6.22222 8.67489 6.22222 9.19022C6.74022 9.19022 7.25822 9.19022 7.77778 9.19022C7.77778 9.70556 7.77778 10.2209 7.77778 10.7378C8.29578 10.7378 8.81378 10.7378 9.33333 10.7378C9.33333 11.2531 9.33333 11.7685 9.33333 12.2853C10.3709 12.2853 11.4069 12.2853 12.4444 12.2853C12.446 10.2209 12.4429 8.158 12.4444 6.09511C12.9624 6.09511 13.4804 6.09511 14 6.09511C14 5.57978 14 5.06289 14 4.54756C14.518 4.54756 15.036 4.54756 15.5556 4.54756C15.5556 4.03222 15.5556 3.51534 15.5556 3Z" fill="white"/>
<path d="M26.4445 6.09509C26.9625 6.09509 27.4805 6.09509 28 6.09509C28 6.61043 28 7.12577 28 7.64265C27.4805 7.64265 26.9625 7.64265 26.4445 7.64265C26.4445 7.12731 26.4445 6.61198 26.4445 6.09509Z" fill="white"/>
<path d="M26.4444 9.19014C26.9624 9.18859 27.4804 9.19014 28 9.19014C28 9.70548 28 10.2208 28 10.7377C27.4804 10.7377 26.9624 10.7377 26.4444 10.7377C26.4444 10.2208 26.4429 9.70548 26.4444 9.19014Z" fill="white"/>
</svg>
